<svg xmlns="http://www.w3.org/2000/svg" width="250" height="80">
  <text transform="translate(-535.25 -260)" fill="#1A1A1A" font-family="'Roboto-Bold'" font-size="72" letter-spacing="-3">
    NAYKEL
  </text>
  <path fill="#13365B" d="M78.82 54.665H61.271l-3.336 10.322H47.292l18.082-50.1h9.275l18.182 50.1H82.189L78.82 54.665zm-14.846-8.362h12.144L70.012 27.55l-6.038 18.753zM106.7 37.46l10.109-22.572h10.942L111.804 46.82v18.168h-10.175V46.819L85.682 14.888h10.976L106.7 37.46z"/>
  <path fill="#D82638" d="M144.985 44.893l-5.204 5.78v14.314h-10.009v-50.1h10.009v22.71l4.403-6.229 12.378-16.481h12.311l-17.248 22.264 17.748 27.836h-11.91l-12.478-20.094zM199.951 43.275h-19.216v13.42h22.553v8.292h-32.562v-50.1h32.494v8.361h-22.485v11.94h19.216v8.087zM215.752 56.695h21.252v8.292h-31.26v-50.1h10.008v41.808z"/>
  <path fill="#13365B" d="M13 70V29.525L35.928 65H45V10h88l-14-7H36v47.611L12.955 15H4v62h127l21-7z"/>
  <path fill="#D82638" d="M119 3l14 7h106v60h-87l-21 7h115V3z"/>
</svg>
