<svg xmlns="http://www.w3.org/2000/svg" style="display: none;">
  
    <symbol id="icon-checkbox-checked" viewBox="0 0 512 512">
      <path d="m448 0l-384 0c-35 0-64 29-64 64l0 384c0 35 29 64 64 64l384 0c35 0 64-29 64-64l0-384c0-35-29-64-64-64z m-224 397l-119-118 46-46 73 74 153-154 46 46z"/>
    </symbol>
  
    <symbol id="icon-checkbox-unchecked" viewBox="0 0 512 512">
      <path d="m448 0l-384 0c-35 0-64 29-64 64l0 384c0 35 29 64 64 64l384 0c35 0 64-29 64-64l0-384c0-35-29-64-64-64z m0 448l-384 0 0-384 384 0z"/>
    </symbol>
  
    <symbol id="icon-checkmark" viewBox="0 0 512 512">
      <path d="m432 64l-240 240-112-112-80 80 192 192 320-320z"/>
    </symbol>
  
    <symbol id="icon-chevron-down" viewBox="0 0 512 512">
      <path d="m481 231l-212 212c-7 7-19 7-26 0l-212-212c-7-7-7-19 0-26l48-47c7-7 18-7 25 0l152 151 152-151c7-7 18-7 25 0l48 47c7 7 7 19 0 26z"/>
    </symbol>
  
    <symbol id="icon-chevron-left" viewBox="0 0 512 512">
      <path d="m399 86l-152 152 152 151c7 8 7 19 0 26l-48 48c-7 7-18 7-26 0l-212-212c-7-8-7-19 0-26l212-212c8-7 19-7 26 0l48 47c7 7 7 19 0 26z"/>
    </symbol>
  
    <symbol id="icon-chevron-right" viewBox="0 0 512 512">
      <path d="m396 251l-212 212c-7 7-18 7-25 0l-48-48c-7-7-7-18 0-26l152-151-152-152c-7-7-7-19 0-26l48-47c7-7 18-7 25 0l212 212c7 7 7 18 0 26z"/>
    </symbol>
  
    <symbol id="icon-chevron-up" viewBox="0 0 512 512">
      <path d="m481 380l-48 47c-7 8-18 8-25 0l-152-151-152 151c-7 8-18 8-25 0l-48-47c-7-7-7-19 0-26l212-211c7-8 19-8 26 0l212 211c7 7 7 19 0 26z"/>
    </symbol>
  
    <symbol id="icon-close" viewBox="0 0 512 512">
      <path d="m427 378c0 7-3 14-8 19l-39 39c-5 5-12 8-19 8-8 0-15-3-20-8l-84-84-84 84c-5 5-12 8-19 8-7 0-15-3-20-8l-39-39c-5-5-8-12-8-19 0-7 3-15 8-20l84-84-84-84c-5-5-8-12-8-19 0-7 3-14 8-20l39-38c5-6 13-8 20-8 7 0 14 2 19 8l84 84 84-84c5-6 12-8 20-8 7 0 14 2 19 8l39 38c5 6 8 13 8 20 0 7-3 14-8 19l-84 84 84 84c5 5 8 13 8 20z"/>
    </symbol>
  
    <symbol id="icon-close-circle" viewBox="0 0 512 512">
      <path d="m256 464c-115 0-208-93-208-208 0-115 93-208 208-208 115 0 208 93 208 208 0 115-93 208-208 208z m95-269c4-4 4-10 0-14l-21-21c-4-4-10-4-14 0l-60 60-60-60c-4-4-11-4-15 0l-21 21c-4 4-4 10 0 14l60 61-60 60c-4 4-4 10 0 14l21 21c4 4 11 4 15 0l60-60 60 60c4 4 10 4 14 0l21-21c4-4 4-10 0-14l-60-60z"/>
    </symbol>
  
    <symbol id="icon-edit" viewBox="0 0 512 512">
      <path d="m254 338l33-33-44-43-33 33 0 16 28 0 0 27z m125-205c-2-3-6-3-9 0l-100 100c-3 2-3 7 0 9 2 3 7 3 9 0l100-100c3-3 3-7 0-9z m23 169l0 55c0 45-37 82-82 82l-238 0c-45 0-82-37-82-82l0-238c0-46 37-82 82-82l238 0c11 0 23 2 33 7 3 1 5 3 6 6 0 3-1 6-3 9l-14 14c-3 2-6 3-9 2-4-1-9-2-13-2l-238 0c-25 0-45 21-45 46l0 238c0 25 20 45 45 45l238 0c25 0 46-20 46-45l0-36c0-3 1-5 2-7l19-18c2-3 6-3 10-2 3 1 5 5 5 8z m-27-211l82 83-192 192-82 0 0-83z m127 38l-27 26-82-82 26-26c11-11 29-11 39 0l44 43c10 11 10 29 0 39z"/>
    </symbol>
  
    <symbol id="icon-home" viewBox="0 0 512 512">
      <path d="m512 295l-256-199-256 199 0-81 256-199 256 199z m-64-7l0 192-128 0 0-128-128 0 0 128-128 0 0-192 192-144z"/>
    </symbol>
  
    <symbol id="icon-image" viewBox="0 0 512 512">
      <path d="m480 64c0 0 0 0 0 0l0 384c0 0 0 0 0 0l-448 0c0 0 0 0 0 0l0-384c0 0 0 0 0 0z m0-32l-448 0c-18 0-32 14-32 32l0 384c0 18 14 32 32 32l448 0c18 0 32-14 32-32l0-384c0-18-14-32-32-32z m-64 112c0 27-21 48-48 48-27 0-48-21-48-48 0-27 21-48 48-48 27 0 48 21 48 48z m32 272l-384 0 0-64 112-192 128 160 32 0 112-96z"/>
    </symbol>
  
    <symbol id="icon-menu" viewBox="0 0 512 512">
      <path d="m18 114l476 0c10 0 18-8 18-18l0-46c0-10-8-18-18-18l-476 0c-10 0-18 8-18 18l0 46c0 10 8 18 18 18z m0 183l476 0c10 0 18-8 18-18l0-46c0-10-8-18-18-18l-476 0c-10 0-18 8-18 18l0 46c0 10 8 18 18 18z m0 183l476 0c10 0 18-8 18-18l0-46c0-10-8-18-18-18l-476 0c-10 0-18 8-18 18l0 46c0 10 8 18 18 18z"/>
    </symbol>
  
    <symbol id="icon-minus" viewBox="0 0 512 512">
      <path d="m458 210l0 55c0 15-12 28-27 28l-348 0c-15 0-27-13-27-28l0-55c0-15 12-27 27-27l348 0c15 0 27 12 27 27z"/>
    </symbol>
  
    <symbol id="icon-minus-circle" viewBox="0 0 512 512">
      <path d="m387 274l0-36c0-10-8-19-18-19l-219 0c-10 0-19 9-19 19l0 36c0 10 9 19 19 19l219 0c10 0 18-9 18-19z m92-18c0 121-98 219-220 219-121 0-219-98-219-219 0-121 98-219 219-219 122 0 220 98 220 219z"/>
    </symbol>
  
    <symbol id="icon-plus" viewBox="0 0 512 512">
      <path d="m458 210l0 55c0 15-12 28-27 28l-119 0 0 118c0 16-12 28-27 28l-55 0c-15 0-28-12-28-28l0-118-119 0c-15 0-27-13-27-28l0-55c0-15 12-27 27-27l119 0 0-119c0-15 13-27 28-27l55 0c15 0 27 12 27 27l0 119 119 0c15 0 27 12 27 27z"/>
    </symbol>
  
    <symbol id="icon-plus-circle" viewBox="0 0 512 512">
      <path d="m387 274l0-36c0-10-8-19-18-19l-73 0 0-73c0-10-8-18-18-18l-37 0c-10 0-18 8-18 18l0 73-73 0c-10 0-19 9-19 19l0 36c0 10 9 19 19 19l73 0 0 73c0 10 8 18 18 18l37 0c10 0 18-8 18-18l0-73 73 0c10 0 18-9 18-19z m92-18c0 121-98 219-220 219-121 0-219-98-219-219 0-121 98-219 219-219 122 0 220 98 220 219z"/>
    </symbol>
  
    <symbol id="icon-trash" viewBox="0 0 512 512">
      <path d="m202 210l0 165c0 5-4 9-9 9l-18 0c-5 0-9-4-9-9l0-165c0-5 4-9 9-9l18 0c5 0 9 4 9 9z m73 0l0 165c0 5-4 9-9 9l-18 0c-5 0-9-4-9-9l0-165c0-5 4-9 9-9l18 0c5 0 9 4 9 9z m74 0l0 165c0 5-4 9-10 9l-18 0c-5 0-9-4-9-9l0-165c0-5 4-9 9-9l18 0c6 0 10 4 10 9z m36 207l0-271-256 0 0 271c0 14 8 22 9 22l238 0c1 0 9-8 9-22z m-192-307l128 0-14-34c0-1-3-3-4-3l-91 0c-2 0-4 2-5 3z m265 9l0 18c0 5-4 9-9 9l-27 0 0 271c0 32-21 58-46 58l-238 0c-25 0-45-25-45-57l0-272-28 0c-5 0-9-4-9-9l0-18c0-5 4-9 9-9l88 0 20-48c6-14 23-25 38-25l92 0c15 0 32 11 38 25l20 48 88 0c5 0 9 4 9 9z"/>
    </symbol>
  
</svg>
