<svg xmlns="http://www.w3.org/2000/svg" style="display: none;">
  
    <symbol id="icon-checkbox-checked" viewBox="0 0 512 512">
      <path d="m448 0l-384 0c-35 0-64 29-64 64l0 384c0 35 29 64 64 64l384 0c35 0 64-29 64-64l0-384c0-35-29-64-64-64z m-224 397l-119-118 46-46 73 74 153-154 46 46z"/>
    </symbol>
  
    <symbol id="icon-checkbox-unchecked" viewBox="0 0 512 512">
      <path d="m448 0l-384 0c-35 0-64 29-64 64l0 384c0 35 29 64 64 64l384 0c35 0 64-29 64-64l0-384c0-35-29-64-64-64z m0 448l-384 0 0-384 384 0z"/>
    </symbol>
  
    <symbol id="icon-checkmark" viewBox="0 0 512 512">
      <path d="m432 64l-240 240-112-112-80 80 192 192 320-320z"/>
    </symbol>
  
    <symbol id="icon-chevron-down" viewBox="0 0 512 512">
      <path d="m481 231l-212 212c-7 7-19 7-26 0l-212-212c-7-7-7-19 0-26l48-47c7-7 18-7 25 0l152 151 152-151c7-7 18-7 25 0l48 47c7 7 7 19 0 26z"/>
    </symbol>
  
    <symbol id="icon-chevron-left" viewBox="0 0 512 512">
      <path d="m399 86l-152 152 152 151c7 8 7 19 0 26l-48 48c-7 7-18 7-26 0l-212-212c-7-8-7-19 0-26l212-212c8-7 19-7 26 0l48 47c7 7 7 19 0 26z"/>
    </symbol>
  
    <symbol id="icon-chevron-right" viewBox="0 0 512 512">
      <path d="m396 251l-212 212c-7 7-18 7-25 0l-48-48c-7-7-7-18 0-26l152-151-152-152c-7-7-7-19 0-26l48-47c7-7 18-7 25 0l212 212c7 7 7 18 0 26z"/>
    </symbol>
  
    <symbol id="icon-chevron-up" viewBox="0 0 512 512">
      <path d="m481 380l-48 47c-7 8-18 8-25 0l-152-151-152 151c-7 8-18 8-25 0l-48-47c-7-7-7-19 0-26l212-211c7-8 19-8 26 0l212 211c7 7 7 19 0 26z"/>
    </symbol>
  
    <symbol id="icon-close" viewBox="0 0 512 512">
      <path d="m427 378c0 7-3 14-8 19l-39 39c-5 5-12 8-19 8-8 0-15-3-20-8l-84-84-84 84c-5 5-12 8-19 8-7 0-15-3-20-8l-39-39c-5-5-8-12-8-19 0-7 3-15 8-20l84-84-84-84c-5-5-8-12-8-19 0-7 3-14 8-20l39-38c5-6 13-8 20-8 7 0 14 2 19 8l84 84 84-84c5-6 12-8 20-8 7 0 14 2 19 8l39 38c5 6 8 13 8 20 0 7-3 14-8 19l-84 84 84 84c5 5 8 13 8 20z"/>
    </symbol>
  
    <symbol id="icon-close-circle" viewBox="0 0 512 512">
      <path d="m256 464c-115 0-208-93-208-208 0-115 93-208 208-208 115 0 208 93 208 208 0 115-93 208-208 208z m95-269c4-4 4-10 0-14l-21-21c-4-4-10-4-14 0l-60 60-60-60c-4-4-11-4-15 0l-21 21c-4 4-4 10 0 14l60 61-60 60c-4 4-4 10 0 14l21 21c4 4 11 4 15 0l60-60 60 60c4 4 10 4 14 0l21-21c4-4 4-10 0-14l-60-60z"/>
    </symbol>
  
    <symbol id="icon-cross" viewBox="0 0 512 512">
      <path d="m427 378c0 7-3 14-8 19l-39 39c-5 5-12 8-19 8-8 0-15-3-20-8l-84-84-84 84c-5 5-12 8-19 8-7 0-15-3-20-8l-39-39c-5-5-8-12-8-19 0-7 3-15 8-20l84-84-84-84c-5-5-8-12-8-19 0-7 3-14 8-20l39-38c5-6 13-8 20-8 7 0 14 2 19 8l84 84 84-84c5-6 12-8 20-8 7 0 14 2 19 8l39 38c5 6 8 13 8 20 0 7-3 14-8 19l-84 84 84 84c5 5 8 13 8 20z"/>
    </symbol>
  
    <symbol id="icon-cross-circle" viewBox="0 0 512 512">
      <path d="m256 464c-115 0-208-93-208-208 0-115 93-208 208-208 115 0 208 93 208 208 0 115-93 208-208 208z m95-269c4-4 4-10 0-14l-21-21c-4-4-10-4-14 0l-60 60-60-60c-4-4-11-4-15 0l-21 21c-4 4-4 10 0 14l60 61-60 60c-4 4-4 10 0 14l21 21c4 4 11 4 15 0l60-60 60 60c4 4 10 4 14 0l21-21c4-4 4-10 0-14l-60-60z"/>
    </symbol>
  
    <symbol id="icon-css" viewBox="0 0 512 512">
      <path d="m1 350l0-326c0-13 10-24 23-24l462 0c14 0 24 11 24 24l0 315c-14-9-31-13-50-13-27 0-47 6-61 19-14 13-21 28-21 47 0 21 7 36 22 46 8 6 23 12 45 16l23 5c13 3 23 7 29 10 6 4 9 10 9 17 0 12-6 20-19 24l0 0-47 0c-6-2-11-5-15-9-4-5-6-12-8-22l-42 0c0 12 2 23 7 32l-36 0c4-9 7-18 7-28 0-19-7-33-19-43-8-7-20-12-36-16l-37-8c-14-3-23-6-28-9-6-4-10-9-10-17 0-8 4-14 10-19 8-4 16-6 28-6 10 0 19 2 26 5 10 6 16 15 17 28l42 0c0-22-9-40-24-51-16-12-35-18-57-18-27 0-47 6-61 19-14 12-21 28-21 47 0 20 7 36 22 46 8 5 24 11 45 16l23 5c13 3 22 6 29 10 6 4 9 9 9 16 0 12-6 20-19 25l-48 0c-6-3-11-6-14-10-4-5-7-12-8-22l-43 0c0 12 2 22 7 32l-45 0c7-12 12-24 14-39l-44 0c-3 11-6 20-11 25-5 7-13 11-22 14l-26 0c-9-3-18-8-24-17-10-11-15-29-15-53 0-24 5-42 14-55 10-13 22-19 38-19 16 0 28 4 36 13 5 6 9 13 11 23l45 0c-1-13-6-26-15-39-16-24-42-36-78-36-25 0-46 8-62 23l-1-2z m509 78l0-33-11 0c0-13-6-22-16-27-7-4-16-6-26-6-11 0-20 3-27 7-7 5-10 11-10 20 0 7 3 13 10 16 5 3 14 6 28 9l37 9c6 1 12 3 17 5l-1 0z"/>
    </symbol>
  
    <symbol id="icon-dropbox" viewBox="0 0 512 512">
      <path d="m128 39l-128 81 128 82 128-82z m256 0l-128 81 128 82 128-82z m-384 244l128 82 128-82-128-81z m384-81l-128 81 128 82 128-82z m-256 190l128 81 128-81-128-82z"/>
    </symbol>
  
    <symbol id="icon-edit" viewBox="0 0 512 512">
      <path d="m254 338l33-33-44-43-33 33 0 16 28 0 0 27z m125-205c-2-3-6-3-9 0l-100 100c-3 2-3 7 0 9 2 3 7 3 9 0l100-100c3-3 3-7 0-9z m23 169l0 55c0 45-37 82-82 82l-238 0c-45 0-82-37-82-82l0-238c0-46 37-82 82-82l238 0c11 0 23 2 33 7 3 1 5 3 6 6 0 3-1 6-3 9l-14 14c-3 2-6 3-9 2-4-1-9-2-13-2l-238 0c-25 0-45 21-45 46l0 238c0 25 20 45 45 45l238 0c25 0 46-20 46-45l0-36c0-3 1-5 2-7l19-18c2-3 6-3 10-2 3 1 5 5 5 8z m-27-211l82 83-192 192-82 0 0-83z m127 38l-27 26-82-82 26-26c11-11 29-11 39 0l44 43c10 11 10 29 0 39z"/>
    </symbol>
  
    <symbol id="icon-facebook" viewBox="0 0 512 512">
      <path d="m464 0l-416 0c-26 0-48 22-48 48l0 416c0 26 22 48 48 48l208 0 0-224-64 0 0-64 64 0 0-32c0-53 43-96 96-96l64 0 0 64-64 0c-18 0-32 14-32 32l0 32 96 0-16 64-80 0 0 224 144 0c26 0 48-22 48-48l0-416c0-26-22-48-48-48z"/>
    </symbol>
  
    <symbol id="icon-git" viewBox="0 0 512 512">
      <path d="m502 233l-223-223c-13-13-34-13-47 0l-52 52 39 39c7-3 14-5 21-5 27 0 48 21 48 48 0 7-2 14-5 21l64 64c7-3 14-5 21-5 26 0 48 21 48 48 0 26-22 48-48 48-27 0-48-22-48-48 0-7 2-14 5-21l-64-64c-2 1-3 2-5 2l0 134c19 6 32 24 32 45 0 27-21 48-48 48-27 0-48-21-48-48 0-21 13-39 32-45l0-134c-19-6-32-24-32-45 0-7 2-14 5-21l-39-39-148 148c-13 13-13 34 0 47l223 223c13 13 34 13 47 0l222-222c13-13 13-34 0-47z"/>
    </symbol>
  
    <symbol id="icon-github" viewBox="0 0 512 512">
      <path d="m256 6c-141 0-256 115-256 256 0 113 73 209 175 243 13 3 18-5 18-12 0-6-1-26-1-48-71 16-86-30-86-30-12-30-28-37-28-37-24-16 1-16 1-16 26 2 40 26 40 26 22 40 59 28 74 22 2-17 9-28 16-35-57-6-116-28-116-126 0-28 10-51 26-69-3-6-11-32 3-68 0 0 21-6 70 27 20-6 42-9 64-9 22 0 44 3 64 9 49-33 70-27 70-27 14 36 6 62 3 68 16 18 26 41 26 69 0 98-60 120-117 126 10 8 18 24 18 48 0 34-1 61-1 70 0 7 5 15 18 12 102-34 175-130 175-243 0-141-115-256-256-256z"/>
    </symbol>
  
    <symbol id="icon-home" viewBox="0 0 512 512">
      <path d="m512 295l-256-199-256 199 0-81 256-199 256 199z m-64-7l0 192-128 0 0-128-128 0 0 128-128 0 0-192 192-144z"/>
    </symbol>
  
    <symbol id="icon-html5" viewBox="0 0 512 512">
      <path d="m32 0l448 0-41 460-183 52-183-52-41-460z m150 208l-5-58 215 0 5-56-282 0 15 171 195 0-7 73-62 17-63-17-4-45-56 0 7 89 116 31 115-31 16-174-205 0z"/>
    </symbol>
  
    <symbol id="icon-image" viewBox="0 0 512 512">
      <path d="m480 64c0 0 0 0 0 0l0 384c0 0 0 0 0 0l-448 0c0 0 0 0 0 0l0-384c0 0 0 0 0 0z m0-32l-448 0c-18 0-32 14-32 32l0 384c0 18 14 32 32 32l448 0c18 0 32-14 32-32l0-384c0-18-14-32-32-32z m-64 112c0 27-21 48-48 48-27 0-48-21-48-48 0-27 21-48 48-48 27 0 48 21 48 48z m32 272l-384 0 0-64 112-192 128 160 32 0 112-96z"/>
    </symbol>
  
    <symbol id="icon-javascript" viewBox="0 0 512 512">
      <path d="m0 0l512 0 0 512-512 0z m470 390c-4-23-19-43-64-61-16-8-33-13-38-25-2-7-3-11-1-15 3-14 19-18 32-14 8 3 16 9 21 19 22-14 22-14 37-24-5-9-8-12-12-16-14-15-32-23-61-22l-15 2c-14 3-28 11-36 21-25 28-18 76 12 95 29 22 72 27 77 47 5 25-18 33-42 30-17-3-27-12-37-28l-39 22c4 11 9 15 17 24 37 38 130 36 147-21 0-2 5-15 1-36l1 2z m-192-155l-48 0c0 42 0 83 0 124 0 26 2 51-3 58-7 15-25 13-33 10-9-4-13-10-18-18-1-2-2-4-2-4l-39 24c6 13 16 25 28 32 18 11 43 15 68 9 17-5 31-15 39-30 11-20 8-44 8-72 1-43 0-87 0-131l0-2z"/>
    </symbol>
  
    <symbol id="icon-laravel" viewBox="0 0 512 512">
      <path d="m138 283l-137-228c7-31 34-55 67-55 0 0 0 0 0 0l376 0c28 0 52 17 63 42-11-11-18-8-26-7-10 1-122 20-134 23-14 2-22 7-14 18l97 137-292 70z m-20 46l-118 31 0 84c0 38 31 68 68 68l154 0c-20-33-75-131-103-183l-1 0z m219 183l107 0c36 0 65-28 68-63z m-242-227l-95-163 0 194 93-22c7-2 5-2 2-9z m404-218c-6-8-10-7-14-6-4 2-102 19-108 20-6 1-4 4-1 7l85 118 51-13 0-109c-3-4-8-10-12-15l-1-2z m-55 177l-285 75c0 0 87 151 94 161 7 10 11 9 16 7 4-2 166-57 243-83l0-81-55-75c-3-5-5-6-13-4z m41-7l27 36 0-47-29 8z"/>
    </symbol>
  
    <symbol id="icon-menu" viewBox="0 0 512 512">
      <path d="m18 114l476 0c10 0 18-8 18-18l0-46c0-10-8-18-18-18l-476 0c-10 0-18 8-18 18l0 46c0 10 8 18 18 18z m0 183l476 0c10 0 18-8 18-18l0-46c0-10-8-18-18-18l-476 0c-10 0-18 8-18 18l0 46c0 10 8 18 18 18z m0 183l476 0c10 0 18-8 18-18l0-46c0-10-8-18-18-18l-476 0c-10 0-18 8-18 18l0 46c0 10 8 18 18 18z"/>
    </symbol>
  
    <symbol id="icon-minus" viewBox="0 0 512 512">
      <path d="m458 210l0 55c0 15-12 28-27 28l-348 0c-15 0-27-13-27-28l0-55c0-15 12-27 27-27l348 0c15 0 27 12 27 27z"/>
    </symbol>
  
    <symbol id="icon-minus-circle" viewBox="0 0 512 512">
      <path d="m387 274l0-36c0-10-8-19-18-19l-219 0c-10 0-19 9-19 19l0 36c0 10 9 19 19 19l219 0c10 0 18-9 18-19z m92-18c0 121-98 219-220 219-121 0-219-98-219-219 0-121 98-219 219-219 122 0 220 98 220 219z"/>
    </symbol>
  
    <symbol id="icon-mysql" viewBox="0 0 512 512">
      <path d="m350 121c-2 0-4 0-6 1l0 0 0 0c2 2 4 4 5 6 1 2 2 4 3 7l1-1c2-1 3-3 3-7-1-1-1-2-2-3-1-1-3-2-4-3z m-227 282l-20 0c0-34-2-65-5-95l-1 0-30 95-15 0-30-95 0 0c-2 29-3 60-4 95l-18 0c1-42 4-82 9-118l24 0 29 86 0 0 29-86 23 0c5 43 8 82 9 118z m86-87c-8 43-19 75-32 95-10 15-22 23-34 23-3 0-7-1-12-3l0-11c2 0 5 1 8 1 6 0 11-2 14-5 4-4 6-8 6-13 0-3-1-10-4-20l-22-67 19 0 16 50c3 11 5 19 4 24 9-23 15-48 18-74z m263 87l-56 0 0-118 18 0 0 103 38 0z m-71 2l-22-10c2-2 4-4 6-6 9-10 13-26 13-48 0-39-15-58-45-58-16 0-27 5-36 15-9 10-13 26-13 48 0 20 4 36 12 45 7 9 18 13 34 13 5 0 10 0 15-2l28 17 8-14z m-70-26c-5-8-8-20-8-37 0-30 10-45 28-45 9 0 16 4 20 11 5 8 8 20 8 37 0 30-9 45-27 45-10 0-17-4-21-11z m-36-9c0 10-3 18-11 25-7 6-17 9-29 9-12 0-23-4-34-11l5-10c10 5 18 7 26 7 7 0 12-2 16-5 4-3 7-7 7-13 0-7-5-13-14-18-8-4-25-14-25-14-9-6-13-13-13-25 0-10 3-17 10-23 6-6 15-9 26-9 11 0 21 3 30 9l-5 10c-8-3-15-5-23-5-6 0-10 1-14 4-3 3-5 7-5 12 0 7 5 13 14 18 9 4 26 14 26 14 9 7 13 13 13 25z m200-125c-11 0-20 1-27 4-2 1-6 1-6 4 1 1 1 3 2 4 2 3 5 7 8 9 3 2 6 4 9 6 5 4 12 6 17 9 3 2 6 5 9 7 2 1 3 3 5 4l0-1c-1-1-1-3-2-4-2-2-3-3-5-4-4-6-9-11-14-15-5-3-15-7-17-12l0-1c3 0 7-1 10-2 5-1 9-1 14-2 2-1 5-2 7-2l0-2c-3-2-5-6-7-8-7-6-16-12-24-18-4-2-10-4-15-7-1-1-4-1-5-2-3-4-4-8-6-11-4-8-8-17-12-25-2-6-4-11-7-16-15-25-31-39-55-54-5-3-12-4-18-6-4 0-8 0-11 0-2-1-5-4-7-5-8-5-29-16-35-2-4 10 6 19 9 23 3 4 6 7 7 11 1 3 2 5 3 8 2 6 4 13 7 19 2 3 3 6 5 9 2 1 4 2 4 4-2 3-2 8-3 11-5 16-3 36 4 48 2 4 8 11 15 8 6-2 5-10 7-17 0-2 0-3 1-4l0 0c2 4 4 8 6 12 4 7 12 14 18 19 3 2 6 7 10 9l0-1 0 0c-1-1-2-2-3-3-3-2-6-5-8-8-6-8-11-17-16-26-2-5-4-10-6-14-1-2-1-4-2-5-2 3-5 6-7 10-3 6-3 13-4 21 0 0 0 0 0 0-5-1-7-5-8-9-5-11-5-27-2-38 1-3 6-13 4-16-1-2-4-4-5-6-2-3-4-6-5-9-4-8-6-17-9-25-2-4-5-8-7-11-3-4-6-7-8-11-1-2-2-4-1-6 1-1 1-2 2-2 2-1 7 1 9 1 6 3 10 5 14 8 2 1 5 4 7 4l3 0c5 1 10 1 14 2 8 2 14 6 21 10 18 12 34 28 44 49 2 3 3 6 4 9 3 7 7 14 10 21 3 7 6 14 10 19 2 3 11 5 14 6 3 2 8 3 10 4 5 3 10 7 15 10 2 2 9 5 9 8z"/>
    </symbol>
  
    <symbol id="icon-php" viewBox="0 0 512 512">
      <path d="m150 218l-21 0-11 56 18 0c12 0 21-2 27-6 6-5 9-12 12-23 1-10 1-17-3-21-4-4-11-6-22-6z m106-97c-141 0-256 61-256 135 0 74 115 135 256 135 141 0 256-61 256-135 0-74-115-135-256-135z m-70 159c-5 6-12 10-19 12-7 2-16 4-28 4l-25 0-7 35-29 0 26-135 57 0c17 0 29 5 37 14 8 9 10 21 7 37-1 7-4 13-7 19l0-1c-3 6-7 11-12 15z m86 16l12-60c1-7 1-12-2-14-2-3-7-4-14-4l-24 0-15 78-29 0 27-135 29 0-7 35 26 0c16 0 27 3 34 9 6 6 8 15 5 28l-12 63z m162-49c-1 7-3 13-6 19l0-1c-3 6-7 11-12 15-6 5-12 9-19 12l-1 0c-7 2-16 4-27 4l-25 0-7 35-30 0 27-135 56 0c17 0 30 5 37 14 8 9 10 21 7 37z m-55-29l-20 0-11 56 18 0c12 0 20-2 26-6 6-5 10-12 12-23 2-10 1-17-3-21-3-4-11-6-22-6z"/>
    </symbol>
  
    <symbol id="icon-place-holder-9x6" viewBox="0 0 512 512">
      <path d="m-16-6l464 0 0 300-464 0z m203 147c7 0 13-5 13-11 0-6-6-11-13-11-7 0-13 5-13 11 0 6 6 11 13 11z m0-18c5 0 9 3 9 7 0 4-4 7-9 7-5 0-8-3-8-7 0-4 3-7 8-7z m-31-29l0 100 120 0 0-100z m5 4l110 0 0 52-25-18c0-1-1-1-1-1-1 0-2 0-2 1l-24 20-11-9c-1-1-2-1-3 0l-40 28-4 0z m110 93l-110 0 0-16 110 0z m-99-20l34-24 25 20c1 1 2 1 3 0 1-1 1-2 0-3l-11-9 22-19 26 19 0 16z"/>
    </symbol>
  
    <symbol id="icon-plus" viewBox="0 0 512 512">
      <path d="m458 210l0 55c0 15-12 28-27 28l-119 0 0 118c0 16-12 28-27 28l-55 0c-15 0-28-12-28-28l0-118-119 0c-15 0-27-13-27-28l0-55c0-15 12-27 27-27l119 0 0-119c0-15 13-27 28-27l55 0c15 0 27 12 27 27l0 119 119 0c15 0 27 12 27 27z"/>
    </symbol>
  
    <symbol id="icon-plus-circle" viewBox="0 0 512 512">
      <path d="m387 274l0-36c0-10-8-19-18-19l-73 0 0-73c0-10-8-18-18-18l-37 0c-10 0-18 8-18 18l0 73-73 0c-10 0-19 9-19 19l0 36c0 10 9 19 19 19l73 0 0 73c0 10 8 18 18 18l37 0c10 0 18-8 18-18l0-73 73 0c10 0 18-9 18-19z m92-18c0 121-98 219-220 219-121 0-219-98-219-219 0-121 98-219 219-219 122 0 220 98 220 219z"/>
    </symbol>
  
    <symbol id="icon-sass" viewBox="0 0 512 512">
      <path d="m256 0c141 0 256 115 256 256 0 141-115 256-256 256-141 0-256-115-256-256 0-141 115-256 256-256z m-51 341c4 14 3 27 0 39l-2 3c0 2-1 3-1 4-3 6-7 12-12 17-15 17-36 23-45 18-9-6-5-29 13-47 18-20 45-32 45-32l0 0z m212-231c-12-46-87-61-159-36-42 16-88 39-121 70-40 37-46 69-43 82 9 47 74 78 100 101l0 0c-8 4-65 33-79 63-14 31 3 54 14 56 33 10 68-7 86-35 18-27 17-61 9-78 11-3 23-4 39-2 45 5 54 33 52 44-2 12-11 19-15 20-3 2-4 3-3 4 0 2 2 2 4 2 4-1 23-10 24-31 1-28-25-59-72-58-19 0-31 2-40 5 0-1-1-1-2-2-29-31-82-53-80-94 1-15 6-55 103-103 79-39 142-28 153-4 15 34-34 98-116 107-32 4-48-9-52-13-5-5-5-5-7-4-2 1-1 5 0 8 3 6 13 17 30 23 15 5 52 8 96-9 49-20 88-73 77-118l2 2z"/>
    </symbol>
  
    <symbol id="icon-trash" viewBox="0 0 512 512">
      <path d="m202 210l0 165c0 5-4 9-9 9l-18 0c-5 0-9-4-9-9l0-165c0-5 4-9 9-9l18 0c5 0 9 4 9 9z m73 0l0 165c0 5-4 9-9 9l-18 0c-5 0-9-4-9-9l0-165c0-5 4-9 9-9l18 0c5 0 9 4 9 9z m74 0l0 165c0 5-4 9-10 9l-18 0c-5 0-9-4-9-9l0-165c0-5 4-9 9-9l18 0c6 0 10 4 10 9z m36 207l0-271-256 0 0 271c0 14 8 22 9 22l238 0c1 0 9-8 9-22z m-192-307l128 0-14-34c0-1-3-3-4-3l-91 0c-2 0-4 2-5 3z m265 9l0 18c0 5-4 9-9 9l-27 0 0 271c0 32-21 58-46 58l-238 0c-25 0-45-25-45-57l0-272-28 0c-5 0-9-4-9-9l0-18c0-5 4-9 9-9l88 0 20-48c6-14 23-25 38-25l92 0c15 0 32 11 38 25l20 48 88 0c5 0 9 4 9 9z"/>
    </symbol>
  
    <symbol id="icon-trash-o" viewBox="0 0 512 512">
      <path d="m202 210l0 165c0 5-4 9-9 9l-18 0c-5 0-9-4-9-9l0-165c0-5 4-9 9-9l18 0c5 0 9 4 9 9z m73 0l0 165c0 5-4 9-9 9l-18 0c-5 0-9-4-9-9l0-165c0-5 4-9 9-9l18 0c5 0 9 4 9 9z m74 0l0 165c0 5-4 9-10 9l-18 0c-5 0-9-4-9-9l0-165c0-5 4-9 9-9l18 0c6 0 10 4 10 9z m36 207l0-271-256 0 0 271c0 14 8 22 9 22l238 0c1 0 9-8 9-22z m-192-307l128 0-14-34c0-1-3-3-4-3l-91 0c-2 0-4 2-5 3z m265 9l0 18c0 5-4 9-9 9l-27 0 0 271c0 32-21 58-46 58l-238 0c-25 0-45-25-45-57l0-272-28 0c-5 0-9-4-9-9l0-18c0-5 4-9 9-9l88 0 20-48c6-14 23-25 38-25l92 0c15 0 32 11 38 25l20 48 88 0c5 0 9 4 9 9z"/>
    </symbol>
  
    <symbol id="icon-vue" viewBox="0 0 512 512">
      <path d="m410 34l0 0-95 0-59 103-59-103-95 0 0 0-102 0 256 444 256-444z"/>
    </symbol>
  
</svg>
