<!-- Generated by IcoMoon.io -->
<svg version="1.1" xmlns="http://www.w3.org/2000/svg" width="32" height="32" viewBox="0 0 32 32">
<title>laravel</title>
<path fill="#e74430" d="M8.613 17.693l-8.52-14.227c0.384-1.979 2.103-3.453 4.166-3.453 0.002 0 0.005 0 0.007 0h23.493c1.76 0 3.267 1.067 3.907 2.587-0.693-0.64-1.107-0.48-1.6-0.4-0.613 0.080-7.6 1.253-8.4 1.4-0.827 0.133-1.333 0.453-0.827 1.16l6.040 8.56-18.267 4.373zM7.4 20.573l-7.4 1.933v5.24c0.008 2.351 1.915 4.253 4.267 4.253 0 0 0 0 0 0h9.587c-1.253-2.040-4.667-8.2-6.44-11.413h-0.013zM21.067 31.987h6.693c2.24 0 4.067-1.733 4.227-3.907l-10.92 3.907zM5.92 17.813l-5.893-10.173v12.133l5.773-1.387c0.467-0.107 0.347-0.16 0.12-0.573zM31.16 4.16c-0.333-0.453-0.573-0.387-0.84-0.32s-6.36 1.16-6.733 1.2c-0.373 0.067-0.253 0.267-0.093 0.48l5.333 7.333 3.173-0.76v-6.853c-0.212-0.257-0.487-0.604-0.757-0.955l-0.083-0.112zM27.733 15.28l-17.813 4.64s5.467 9.467 5.88 10.067c0.427 0.613 0.68 0.56 1.013 0.427 0.24-0.107 10.4-3.547 15.187-5.16v-5.080l-3.413-4.667c-0.213-0.333-0.333-0.4-0.853-0.227zM30.333 14.8l1.667 2.24v-2.92l-1.8 0.493 0.133 0.187z"></path>
</svg>
