<svg xmlns="http://www.w3.org/2000/svg" width="32" height="32">
  <path d="M1.142 7.143h29.715C31.488 7.143 32 6.631 32 6V3.144C32 2.512 31.488 2 30.856 2H1.142C.512 2 0 2.512 0 3.144V6c0 .631.512 1.143 1.142 1.143zm0 11.429h29.715c.632 0 1.144-.513 1.144-1.144v-2.857c0-.631-.512-1.143-1.144-1.143H1.142c-.63 0-1.142.512-1.142 1.143v2.857c0 .632.512 1.144 1.142 1.144zm0 11.428h29.715c.631 0 1.143-.512 1.143-1.143V26c0-.631-.512-1.144-1.144-1.144H1.142C.512 24.856 0 25.369 0 26v2.857C0 29.488.512 30 1.142 30z"/>
</svg>
