<svg xmlns="http://www.w3.org/2000/svg" width="466.5" height="303" viewBox="-17.375 -7.041 466.5 303">
  <path fill="none" stroke="#C9C9C9" stroke-width="3" stroke-miterlimit="10" d="M-15.875-5.541h463.5v300h-463.5v-300z"/>
  <g fill="#C9C9C9" stroke="#F1F2F2" stroke-miterlimit="10">
    <path d="M187.075 140.877c7.369 0 13.364-4.803 13.364-10.707 0-5.907-5.996-10.711-13.364-10.711-7.37 0-13.365 4.804-13.365 10.709-.001 5.906 5.995 10.709 13.365 10.709zm0-17.572c4.723 0 8.564 3.081 8.564 6.863 0 3.783-3.843 6.863-8.564 6.863-4.725 0-8.565-3.079-8.565-6.861 0-3.782 3.842-6.865 8.565-6.865z"/>
    <path d="M155.875 94.459v100h120v-100h-120zm4.8 3.846h110.399v51.398l-24.777-18.201c-.47-.344-1.089-.515-1.729-.504-.635.023-1.232.249-1.664.625l-23.506 20.628-11.383-9.12c-.896-.718-2.334-.754-3.285-.085l-40.164 28.334h-3.892l.001-73.075zm110.399 92.308H160.675v-15.385h110.399v15.385zm-99.241-19.232l34.378-24.252 24.725 19.811c.938.752 2.455.752 3.396 0 .938-.752.938-1.967 0-2.719l-11.537-9.244 22.035-19.333 26.248 19.279v16.461l-99.245-.003z"/>
  </g>
</svg>
